<svg width="32" height="32" viewBox="0 0 32 32" fill="none" xmlns="http://www.w3.org/2000/svg">
<path d="M17.3334 26.5838C20.0231 26.2416 22.4816 24.888 24.2091 22.7982C25.9367 20.7084 26.8036 18.0392 26.6339 15.3331C26.4641 12.6271 25.2702 10.0872 23.295 8.22968C21.3198 6.3722 18.7114 5.33653 16 5.33317C13.2853 5.33115 10.672 6.36429 8.69247 8.22207C6.71299 10.0799 5.51634 12.6225 5.34634 15.3319C5.17635 18.0413 6.0458 20.7135 7.77755 22.8042C9.50929 24.8948 11.973 26.2465 14.6667 26.5838V18.6665H12V15.9998H14.6667V13.7945C14.6667 12.0118 14.8534 11.3652 15.2 10.7132C15.5415 10.0681 16.0693 9.54076 16.7147 9.19984C17.224 8.9265 17.8574 8.7625 18.964 8.69184C19.4027 8.66384 19.9707 8.6985 20.668 8.7985V11.3318H20C18.7774 11.3318 18.272 11.3892 17.9707 11.5505C17.7909 11.643 17.6445 11.7894 17.552 11.9692C17.392 12.2705 17.3334 12.5692 17.3334 13.7932V15.9998H20.6667L20 18.6665H17.3334V26.5838ZM16 29.3332C8.63602 29.3332 2.66669 23.3638 2.66669 15.9998C2.66669 8.63584 8.63602 2.6665 16 2.6665C23.364 2.6665 29.3334 8.63584 29.3334 15.9998C29.3334 23.3638 23.364 29.3332 16 29.3332Z" fill="#F5F6E5"/>
</svg>
