<svg width="32" height="32" viewBox="0 0 32 32" fill="none" xmlns="http://www.w3.org/2000/svg">
<path d="M16 26.6665C18.8289 26.6665 21.542 25.5427 23.5424 23.5423C25.5428 21.5419 26.6666 18.8288 26.6666 15.9998C26.6666 13.1709 25.5428 10.4578 23.5424 8.45737C21.542 6.45698 18.8289 5.33317 16 5.33317C13.171 5.33317 10.4579 6.45698 8.45749 8.45737C6.4571 10.4578 5.33329 13.1709 5.33329 15.9998C5.33329 18.8288 6.4571 21.5419 8.45749 23.5423C10.4579 25.5427 13.171 26.6665 16 26.6665ZM16 29.3332C8.63596 29.3332 2.66663 23.3638 2.66663 15.9998C2.66663 8.63584 8.63596 2.6665 16 2.6665C23.364 2.6665 29.3333 8.63584 29.3333 15.9998C29.3333 23.3638 23.364 29.3332 16 29.3332ZM11.8533 17.5598L8.52263 16.5212C7.80263 16.3012 7.79863 15.8052 8.68396 15.4492L21.6613 10.4358C22.4146 10.1292 22.8413 10.5172 22.5973 11.4892L20.388 21.9158C20.2333 22.6585 19.7866 22.8358 19.1666 22.4932L15.7653 19.9758L14.18 21.5065C14.0173 21.6638 13.8853 21.7985 13.6346 21.8318C13.3853 21.8665 13.18 21.7918 13.0293 21.3785L11.8693 17.5505L11.8533 17.5612V17.5598Z" fill="#F5F6E5"/>
</svg>
